HIERARCHY
ROOT joint_Root
{
	OFFSET 0.0 0.0 0.0
	CHANNELS 6 Xposition Yposition Zposition Zrotation Xrotation Yrotation 
	JOINT Hips
	{
		OFFSET -0.726466 93.3139 -2.00062
		CHANNELS 6 Xposition Yposition Zposition Zrotation Xrotation Yrotation 
		JOINT Spine
		{
			OFFSET 15.7357 0.0 0.0
			CHANNELS 6 Xposition Yposition Zposition Zrotation Xrotation Yrotation 
			JOINT Chest
			{
				OFFSET 8.98455 -0.406207 0.0
				CHANNELS 6 Xposition Yposition Zposition Zrotation Xrotation Yrotation 
				JOINT Neck
				{
					OFFSET 16.3773 0.0 0.0
					CHANNELS 6 Xposition Yposition Zposition Zrotation Xrotation Yrotation 
					JOINT Head
					{
						OFFSET 6.45672 0.0 0.0
						CHANNELS 6 Xposition Yposition Zposition Zrotation Xrotation Yrotation 
						End Site
						{
							OFFSET 0.0 0.0 0.0
						}
					}
				}
				JOINT Shoulder_L
				{
					OFFSET 12.9942 -0.242716 4.98039
					CHANNELS 6 Xposition Yposition Zposition Zrotation Xrotation Yrotation 
					JOINT UpperArm_L
					{
						OFFSET 5.34809 0.0 0.0
						CHANNELS 6 Xposition Yposition Zposition Zrotation Xrotation Yrotation 
						JOINT LowerArm_L
						{
							OFFSET 24.3286 1.87007e-05 0.0
							CHANNELS 6 Xposition Yposition Zposition Zrotation Xrotation Yrotation 
							JOINT Hand_L
							{
								OFFSET 22.2916 0.0 0.0
								CHANNELS 6 Xposition Yposition Zposition Zrotation Xrotation Yrotation 
								End Site
								{
									OFFSET 0.0 0.0 0.0
								}
							}
						}
					}
				}
				JOINT Shoulder_R
				{
					OFFSET 12.9945 -0.242716 -4.98039
					CHANNELS 6 Xposition Yposition Zposition Zrotation Xrotation Yrotation 
					JOINT UpperArm_R
					{
						OFFSET -5.34813 0.0 0.0
						CHANNELS 6 Xposition Yposition Zposition Zrotation Xrotation Yrotation 
						JOINT LowerArm_R
						{
							OFFSET -24.3289 0.000322201 0.0
							CHANNELS 6 Xposition Yposition Zposition Zrotation Xrotation Yrotation 
							JOINT Hand_R
							{
								OFFSET -22.2915 -0.000108084 0.0
								CHANNELS 6 Xposition Yposition Zposition Zrotation Xrotation Yrotation 
								End Site
								{
									OFFSET 0.0 0.0 0.0
								}
							}
						}
					}
				}
			}
		}
		JOINT UpperLeg_L
		{
			OFFSET -2.19248 -6.46944 0.0
			CHANNELS 6 Xposition Yposition Zposition Zrotation Xrotation Yrotation 
			JOINT LowerLeg_L
			{
				OFFSET 39.0811 0.0 -1.23785e-05
				CHANNELS 6 Xposition Yposition Zposition Zrotation Xrotation Yrotation 
				JOINT Foot_L
				{
					OFFSET 40.9854 0.0 -1.26872e-05
					CHANNELS 6 Xposition Yposition Zposition Zrotation Xrotation Yrotation 
					JOINT Toes_L
					{
						OFFSET 11.7543 0.0 0.0
						CHANNELS 6 Xposition Yposition Zposition Zrotation Xrotation Yrotation 
						End Site
						{
							OFFSET 0.0 0.0 0.0
						}
					}
				}
			}
		}
		JOINT UpperLeg_R
		{
			OFFSET -2.19251 6.46944 0.0
			CHANNELS 6 Xposition Yposition Zposition Zrotation Xrotation Yrotation 
			JOINT LowerLeg_R
			{
				OFFSET -39.0811 -0.00228153 -0.0401928
				CHANNELS 6 Xposition Yposition Zposition Zrotation Xrotation Yrotation 
				JOINT Foot_R
				{
					OFFSET -40.9854 0.0 0.0
					CHANNELS 6 Xposition Yposition Zposition Zrotation Xrotation Yrotation 
					JOINT Toes_R
					{
						OFFSET -11.7543 0.0 0.0
						CHANNELS 6 Xposition Yposition Zposition Zrotation Xrotation Yrotation 
						End Site
						{
							OFFSET 0.0 0.0 0.0
						}
					}
				}
			}
		}
	}
}
MOTION
Frames:	6
Frame Time:	0.0333333
0.000000 0.000000 0.000000 0.000000 0.000000 -0.000000 -2.069160 92.365300 -1.690020 88.466900 0.308087 3.654640 15.735700 0.000005 -0.000001 78.969900 85.460300 -77.432800 8.984550 -0.406207 -0.000000 1.172630 -1.824750 3.090440 16.377300 -0.000001 -0.000001 4.169760 -2.154700 -2.334840 6.456720 -0.000001 -0.000000 3.821330 -2.530400 -1.565860 12.994200 -0.242716 4.980390 -87.690900 -6.386340 -70.073700 5.348090 -0.000007 -0.000001 -83.893100 -35.320500 -87.542100 24.328600 0.000019 0.000005 6.777890 0.399834 -86.639900 22.291600 -0.000001 0.000005 22.762700 5.616740 -12.399000 12.994500 -0.242716 -4.980390 88.261800 5.582560 -72.674500 -5.348130 -0.000001 -0.000004 -63.522700 40.183700 -16.862300 -24.328900 0.000322 -0.000009 2.048680 7.093660 -16.162400 -22.291500 -0.000108 -0.000004 8.324020 5.428910 -3.901870 -2.192480 -6.469440 -0.000000 -175.152000 -5.482460 -3.169400 39.081100 -0.000007 -0.000012 -0.107749 0.265114 22.118200 40.985400 -0.000006 -0.000013 -0.909874 4.439930 -65.513600 11.754300 -0.000000 0.000003 -0.000027 -0.000333 -16.590600 -2.192510 6.469440 -0.000001 -179.542000 14.841100 179.969000 -39.081100 -0.002282 -0.040193 -0.016141 0.056346 19.056600 -40.985400 0.000008 0.000006 4.862470 6.422480 -66.154600 -11.754300 -0.000006 -0.000006 -0.005674 -0.067843 -19.334000
0.000000 0.000000 0.000000 0.000000 0.000000 -0.000000 -2.085460 92.357800 -1.680280 88.450800 0.229909 3.664420 15.735700 0.000005 -0.000001 79.200200 85.462900 -77.669400 8.984550 -0.406207 -0.000000 1.173870 -1.787580 3.077580 16.377300 -0.000001 -0.000001 4.155910 -2.124330 -2.296940 6.456720 -0.000001 -0.000000 3.865760 -2.508200 -1.455740 12.994200 -0.242716 4.980390 -87.700400 -6.353590 -70.055600 5.348090 -0.000007 -0.000001 -84.013500 -35.388400 -87.410200 24.328600 0.000019 0.000005 6.691730 0.355945 -86.969200 22.291600 -0.000001 0.000005 22.940100 5.617880 -12.475800 12.994500 -0.242716 -4.980390 88.257000 5.598110 -72.674500 -5.348130 -0.000001 -0.000004 -63.444200 40.094000 -16.999400 -24.328900 0.000322 -0.000009 2.069760 7.126680 -16.248700 -22.291500 -0.000108 -0.000004 8.319050 5.429180 -3.911020 -2.192480 -6.469440 -0.000000 -175.127000 -5.479120 -3.163450 39.081100 -0.000007 -0.000012 -0.107186 0.263061 22.168800 40.985400 -0.000006 -0.000013 -0.928790 4.388320 -65.555800 11.754300 -0.000000 0.000003 -0.000028 -0.000338 -16.590800 -2.192510 6.469440 -0.000001 -179.520000 14.775000 179.959000 -39.081100 -0.002282 -0.040193 -0.016537 0.057329 19.107300 -40.985400 0.000008 0.000006 4.922940 6.454590 -66.195200 -11.754300 -0.000006 -0.000006 -0.005757 -0.068608 -19.365100
0.000000 0.000000 0.000000 0.000000 0.000000 -0.000000 -2.106650 92.356200 -1.676380 88.450700 0.189983 3.683850 15.735700 0.000005 -0.000001 79.278400 85.455500 -77.760300 8.984550 -0.406207 -0.000000 1.190220 -1.777210 3.052340 16.377300 -0.000001 -0.000001 4.162270 -2.128640 -2.279400 6.456720 -0.000001 -0.000000 3.888320 -2.544750 -1.340980 12.994200 -0.242716 4.980390 -87.703700 -6.338440 -70.038300 5.348090 -0.000007 -0.000001 -84.058600 -35.507400 -87.074000 24.328600 0.000019 0.000005 6.349390 0.287131 -87.421600 22.291600 -0.000001 0.000005 23.119900 5.618270 -12.502600 12.994500 -0.242716 -4.980390 88.261600 5.586470 -72.684300 -5.348130 -0.000001 -0.000004 -63.404200 40.102800 -17.140000 -24.328900 0.000322 -0.000009 2.050310 7.043150 -16.283900 -22.291500 -0.000108 -0.000004 8.392050 5.428770 -3.896750 -2.192480 -6.469440 -0.000000 -175.109000 -5.548470 -3.139730 39.081100 -0.000007 -0.000012 -0.107328 0.263334 22.174500 40.985400 -0.000006 -0.000013 -0.943583 4.374920 -65.558800 11.754300 -0.000000 0.000003 -0.000027 -0.000331 -16.590500 -2.192510 6.469440 -0.000001 -179.503000 14.713500 179.967000 -39.081100 -0.002282 -0.040193 -0.017130 0.059004 19.118600 -40.985400 0.000008 0.000006 4.910060 6.425160 -66.192500 -11.754300 -0.000006 -0.000006 -0.005649 -0.067617 -19.324800
0.000000 0.000000 0.000000 0.000000 0.000000 -0.000000 -2.115980 92.355500 -1.673350 88.487000 0.169432 3.700990 15.735700 0.000005 -0.000001 79.441200 85.458400 -77.948900 8.984550 -0.406207 -0.000000 1.188630 -1.749350 3.000340 16.377300 -0.000001 -0.000001 4.137860 -2.137460 -2.246670 6.456720 -0.000001 -0.000000 3.914330 -2.554940 -1.240460 12.994200 -0.242716 4.980390 -87.717200 -6.310370 -70.065300 5.348090 -0.000007 -0.000001 -83.695400 -35.681600 -86.159800 24.328600 0.000019 0.000005 5.910530 0.192933 -88.137600 22.291600 -0.000001 0.000005 23.242300 5.617690 -12.463200 12.994500 -0.242716 -4.980390 88.249600 5.616290 -72.658600 -5.348130 -0.000001 -0.000004 -63.401200 40.076900 -17.152400 -24.328900 0.000322 -0.000009 2.073170 7.081510 -16.371800 -22.291500 -0.000108 -0.000004 8.340490 5.428270 -3.879880 -2.192480 -6.469440 -0.000000 -175.127000 -5.538920 -3.084680 39.081100 -0.000007 -0.000012 -0.108892 0.267771 22.129600 40.985400 -0.000006 -0.000013 -0.958602 4.382290 -65.550200 11.754300 -0.000000 0.000003 -0.000025 -0.000313 -16.589800 -2.192510 6.469440 -0.000001 -179.533000 14.672200 179.977000 -39.081100 -0.002282 -0.040193 -0.017241 0.059223 19.148700 -40.985400 0.000008 0.000006 4.920260 6.401290 -66.216100 -11.754300 -0.000006 -0.000006 -0.005861 -0.069563 -19.404100
0.000000 0.000000 0.000000 0.000000 0.000000 -0.000000 -2.137570 92.355400 -1.662700 88.479900 0.213162 3.682130 15.735700 0.000005 -0.000001 79.445000 85.463300 -77.952000 8.984550 -0.406207 -0.000000 1.179030 -1.747120 3.001600 16.377300 -0.000001 -0.000001 3.996350 -2.131410 -2.220910 6.456720 -0.000001 -0.000000 3.933450 -2.581680 -1.240430 12.994200 -0.242716 4.980390 -87.750600 -6.230020 -70.102000 5.348090 -0.000007 -0.000001 -82.672200 -35.904500 -84.209800 24.328600 0.000019 0.000005 5.163390 0.050591 -89.441700 22.291600 -0.000001 0.000005 23.353800 5.616790 -12.402700 12.994500 -0.242716 -4.980390 88.234500 5.644900 -72.600700 -5.348130 -0.000001 -0.000004 -63.363600 40.159100 -17.165400 -24.328900 0.000322 -0.000009 2.065910 7.026940 -16.436800 -22.291500 -0.000108 -0.000004 8.403730 5.429120 -3.908760 -2.192480 -6.469440 -0.000000 -175.105000 -5.553600 -3.105670 39.081100 -0.000007 -0.000012 -0.108537 0.266886 22.130700 40.985400 -0.000006 -0.000013 -0.960946 4.436000 -65.549800 11.754300 -0.000000 0.000003 -0.000026 -0.000320 -16.590100 -2.192510 6.469440 -0.000001 -179.489000 14.624500 179.961000 -39.081100 -0.002282 -0.040193 -0.016197 0.056233 19.143600 -40.985400 0.000008 0.000006 4.970550 6.302070 -66.222000 -11.754300 -0.000006 -0.000006 -0.005769 -0.068722 -19.369800
0.000000 0.000000 0.000000 0.000000 0.000000 -0.000000 -2.149990 92.362600 -1.674390 88.512500 0.211517 3.610380 15.735700 0.000005 -0.000001 79.676700 85.483200 -78.201100 8.984550 -0.406207 -0.000000 1.145570 -1.703360 2.966120 16.377300 -0.000001 -0.000001 3.853850 -2.095810 -2.155730 6.456720 -0.000001 -0.000000 3.865860 -2.586970 -1.199220 12.994200 -0.242716 4.980390 -87.818400 -6.036150 -70.086200 5.348090 -0.000007 -0.000001 -80.529900 -35.963200 -80.810600 24.328600 0.000019 0.000005 3.953350 -0.103498 -91.502300 22.291600 -0.000001 0.000005 23.440200 5.615080 -12.289300 12.994500 -0.242716 -4.980390 88.184600 5.785450 -72.545800 -5.348130 -0.000001 -0.000004 -63.339200 40.108100 -17.037700 -24.328900 0.000322 -0.000009 2.074150 7.000450 -16.557500 -22.291500 -0.000108 -0.000004 8.401810 5.429020 -3.905380 -2.192480 -6.469440 -0.000000 -175.140000 -5.556550 -3.146890 39.081100 -0.000007 -0.000012 -0.107630 0.265666 22.054600 40.985400 -0.000006 -0.000013 -0.969118 4.439090 -65.503600 11.754300 -0.000000 0.000003 -0.000026 -0.000318 -16.590000 -2.192510 6.469440 -0.000001 -179.483000 14.578100 179.886000 -39.081100 -0.002282 -0.040193 -0.016539 0.057286 19.122400 -40.985400 0.000008 0.000006 4.968250 6.247750 -66.200100 -11.754300 -0.000006 -0.000006 -0.005809 -0.069087 -19.384700
